<svg width="720" height="520" viewBox="0 0 720 520" fill="none" xmlns="http://www.w3.org/2000/svg">
  <rect width="720" height="520" rx="36" fill="#F7F5EA"/>
  <path d="M166 120C220 78 320 58 412 76C500 93 565 143 607 219C626 255 633 293 633 333C581 391 481 436 374 440C257 444 146 400 90 322C90 244 116 170 166 120Z" fill="#163F2D"/>
  <path d="M167 127C219 92 307 73 392 89C474 105 543 146 587 210C560 251 504 293 436 320C333 359 228 355 143 324C122 281 128 201 167 127Z" fill="#2C5B41"/>
  <circle cx="240" cy="228" r="42" fill="#BFD63A"/>
  <circle cx="379" cy="177" r="42" fill="#F6B457"/>
  <circle cx="500" cy="246" r="42" fill="#E16E4A"/>
  <circle cx="364" cy="323" r="48" fill="#FBFAF2"/>
  <circle cx="364" cy="323" r="20" fill="#1A4A2E"/>
  <circle cx="202" cy="335" r="34" fill="#FBFAF2"/>
  <circle cx="525" cy="347" r="34" fill="#FBFAF2"/>
  <path d="M240 228L364 323" stroke="#FBFAF2" stroke-width="9" stroke-linecap="round"/>
  <path d="M379 177L364 323" stroke="#FBFAF2" stroke-width="9" stroke-linecap="round"/>
  <path d="M500 246L364 323" stroke="#FBFAF2" stroke-width="9" stroke-linecap="round"/>
  <path d="M202 335L364 323" stroke="#BFD63A" stroke-width="8" stroke-linecap="round"/>
  <path d="M525 347L364 323" stroke="#BFD63A" stroke-width="8" stroke-linecap="round"/>
  <rect x="72" y="48" width="196" height="78" rx="24" fill="#FBFAF2"/>
  <text x="102" y="92" fill="#1A4A2E" font-size="36" font-family="Georgia, serif" font-style="italic">Network NET</text>
  <rect x="482" y="58" width="166" height="58" rx="18" fill="#BFD63A"/>
  <text x="513" y="94" fill="#1A4A2E" font-size="22" font-family="Arial, sans-serif" font-weight="700">100 voci, 1 rete</text>
</svg>
