<svg width="720" height="520" viewBox="0 0 720 520" fill="none" xmlns="http://www.w3.org/2000/svg">
  <rect width="720" height="520" rx="36" fill="#F6F4E8"/>
  <circle cx="599" cy="107" r="84" fill="#C5DB46"/>
  <circle cx="136" cy="408" r="96" fill="#DDE8A0"/>
  <rect x="72" y="132" width="372" height="246" rx="24" fill="#1A4A2E"/>
  <rect x="96" y="163" width="326" height="24" rx="12" fill="#355B43"/>
  <rect x="96" y="232" width="326" height="24" rx="12" fill="#355B43"/>
  <rect x="96" y="301" width="326" height="24" rx="12" fill="#355B43"/>
  <rect x="101" y="186" width="84" height="40" rx="16" fill="#F2AB48"/>
  <rect x="197" y="186" width="56" height="40" rx="16" fill="#E06439"/>
  <rect x="267" y="180" width="48" height="46" rx="14" fill="#BFD63A"/>
  <rect x="328" y="180" width="62" height="46" rx="18" fill="#FBFAF2"/>
  <rect x="332" y="168" width="54" height="18" rx="9" fill="#C9B18D"/>
  <rect x="108" y="255" width="70" height="33" rx="12" fill="#FBFAF2"/>
  <rect x="188" y="249" width="66" height="39" rx="12" fill="#E8C97D"/>
  <rect x="266" y="250" width="58" height="38" rx="13" fill="#8A5D35"/>
  <rect x="337" y="247" width="56" height="41" rx="13" fill="#F2AB48"/>
  <rect x="86" y="392" width="230" height="82" rx="24" fill="#E8DFC8"/>
  <path d="M126 408H276L260 454H142L126 408Z" fill="#D9C4A3"/>
  <path d="M151 392C151 365 170 346 201 346C232 346 251 365 251 392" stroke="#C29C69" stroke-width="10" stroke-linecap="round"/>
  <rect x="462" y="178" width="176" height="128" rx="24" fill="#FBFAF2" stroke="#1A4A2E" stroke-width="8"/>
  <rect x="485" y="204" width="132" height="14" rx="7" fill="#DCE6A0"/>
  <path d="M490 267H520L544 236L566 255L589 223L613 267H490Z" fill="#7F9722"/>
  <circle cx="519" cy="247" r="12" fill="#F2AB48"/>
  <rect x="490" y="278" width="118" height="8" rx="4" fill="#1A4A2E" fill-opacity="0.22"/>
  <rect x="460" y="356" width="178" height="92" rx="26" fill="#1A4A2E"/>
  <circle cx="523" cy="401" r="28" stroke="#FBFAF2" stroke-width="6"/>
  <circle cx="523" cy="401" r="46" stroke="#FBFAF2" stroke-opacity="0.58" stroke-width="6"/>
  <circle cx="523" cy="401" r="64" stroke="#FBFAF2" stroke-opacity="0.24" stroke-width="6"/>
  <text x="491" y="391" fill="#FBFAF2" font-size="16" font-family="Arial, sans-serif">CLICK &amp; COLLECT</text>
  <text x="491" y="418" fill="#BFD63A" font-size="24" font-family="Arial, sans-serif" font-weight="700">Hub phygital</text>
</svg>
